<svg xmlns="http://www.w3.org/2000/svg" width="486.446" height="110.288" viewBox="0 0 486.446 110.288">
  <g id="Group_3" data-name="Group 3" transform="translate(-64 -631.632)">
    <g id="Group_1" data-name="Group 1" transform="translate(-760.544 100.674)">
      <rect id="Rectangle_4" data-name="Rectangle 4" width="31.194" height="31.194" transform="translate(868.659 553.016) rotate(45)" fill="#90ba4c"/>
      <path id="Rectangle_11" data-name="Rectangle 11" d="M0,0H31.194V31.194H4a4,4,0,0,1-4-4Z" transform="translate(846.602 575.073) rotate(45)" fill="#719d2c"/>
      <rect id="Rectangle_7" data-name="Rectangle 7" width="31.194" height="31.194" transform="translate(912.774 553.016) rotate(45)" fill="#90ba4c"/>
      <rect id="Rectangle_9" data-name="Rectangle 9" width="31.194" height="31.194" transform="translate(890.716 575.073) rotate(45)" fill="#719d2c"/>
      <path id="Rectangle_13" data-name="Rectangle 13" d="M0,0H31.194V27.194a4,4,0,0,1-4,4H0Z" transform="translate(912.774 597.131) rotate(45)" fill="#507d0c"/>
      <path id="Rectangle_14" data-name="Rectangle 14" d="M0,0H31.194V27.194a4,4,0,0,1-4,4H0Z" transform="translate(868.659 597.131) rotate(45)" fill="#507d0c"/>
      <path id="Rectangle_15" data-name="Rectangle 15" d="M0,0H31.194V27.194a4,4,0,0,1-4,4H0Z" transform="translate(956.889 597.131) rotate(45)" fill="#507d0c"/>
      <rect id="Rectangle_10" data-name="Rectangle 10" width="31.194" height="31.194" transform="translate(934.831 575.073) rotate(45)" fill="#719d2c"/>
      <path id="Rectangle_12" data-name="Rectangle 12" d="M0,0H27.194a4,4,0,0,1,4,4V31.194H0Z" transform="translate(978.946 575.073) rotate(45)" fill="#719d2c"/>
      <rect id="Rectangle_8" data-name="Rectangle 8" width="31.194" height="31.194" transform="translate(956.889 553.016) rotate(45)" fill="#90ba4c"/>
      <path id="Rectangle_5" data-name="Rectangle 5" d="M3,0H31.194V31.194H0V3A3,3,0,0,1,3,0Z" transform="translate(890.716 530.958) rotate(45)" fill="#c4d3ac"/>
      <path id="Rectangle_6" data-name="Rectangle 6" d="M3,0H31.194V31.194H0V3A3,3,0,0,1,3,0Z" transform="translate(934.831 530.958) rotate(45)" fill="#c4d3ac"/>
    </g>
    <path id="Path_220" data-name="Path 220" d="M33.537,4.64H45.158L29.353-41.846H15.805L0,4.64H11.622l2.324-7.3H31.212Zm-16.4-17.266,5.446-17.067,5.446,17.067Zm54.787-29.22v16.4c-2.191-2.524-5.446-4.051-9.895-4.051-8.7,0-15.872,7.637-15.872,17.532S53.326,5.57,62.026,5.57c4.449,0,7.7-1.527,9.895-4.051V4.64h9.961V-41.846ZM64.018-3.86c-4.582,0-7.9-3.121-7.9-8.1s3.32-8.1,7.9-8.1,7.9,3.121,7.9,8.1S68.6-3.86,64.018-3.86Zm62.358-25.634c-4.715,0-7.77,1.727-9.629,4.383a9.881,9.881,0,0,0-8.7-4.383c-4.449,0-7.371,1.727-8.9,3.985v-3.055H89.187V4.64h9.961V-14.087c0-3.918,1.859-6.242,5.18-6.242,3.188,0,4.781,2.125,4.781,5.446V4.64h9.961V-14.087c0-3.918,1.859-6.242,5.18-6.242,3.188,0,4.781,2.125,4.781,5.446V4.64h9.961V-15.747C138.994-24.049,134.013-29.494,126.376-29.494Zm24.438-1.992a6.038,6.038,0,0,0,5.977-5.977,6.038,6.038,0,0,0-5.977-5.977,6.038,6.038,0,0,0-5.977,5.977A6.038,6.038,0,0,0,150.815-31.486ZM145.834,4.64H155.8v-33.2h-9.961Zm36.724-34.134c-4.383,0-7.7,1.594-9.5,4.051v-3.121H163.1V4.64h9.961V-13.49c0-4.715,2.524-6.84,6.176-6.84,3.188,0,5.778,1.926,5.778,6.043V4.64h9.961V-15.747C194.977-24.713,189.265-29.494,182.558-29.494Zm37.189-12.352h-17.6V4.64h10.625V-9.97h6.973a15.975,15.975,0,0,0,16.27-15.938A15.975,15.975,0,0,0,219.747-41.846Zm0,21.915h-6.973V-31.885h6.973a5.68,5.68,0,0,1,5.645,5.977A5.68,5.68,0,0,1,219.747-19.931ZM250.3-22.654v-5.91h-9.961V4.64H250.3V-10.368c0-6.574,5.844-8.235,9.961-7.571v-11.29C256.073-29.228,251.623-27.1,250.3-22.654ZM279.847,5.57a17.4,17.4,0,0,0,17.6-17.532,17.4,17.4,0,0,0-17.6-17.532,17.4,17.4,0,0,0-17.6,17.532A17.4,17.4,0,0,0,279.847,5.57Zm0-9.7a7.447,7.447,0,0,1-7.637-7.836,7.447,7.447,0,0,1,7.637-7.836,7.447,7.447,0,0,1,7.637,7.836A7.447,7.447,0,0,1,279.847-4.126Z" transform="translate(253 717.902)"/>
  </g>
</svg>
